<svg width="40" height="41" viewBox="0 0 40 41" fill="none" xmlns="http://www.w3.org/2000/svg">
<path d="M0 20.1117C0 9.00444 8.89855 0 19.8752 0C30.8519 0 39.7504 9.00444 39.7504 20.1117C39.7504 31.219 30.8519 40.2235 19.8752 40.2235C8.89855 40.2235 0 31.219 0 20.1117Z" fill="#FFE312"/>
<path d="M29.7124 22.732C28.6103 22.732 27.6669 23.4219 27.2793 24.3977H22.3082C22.1915 24.1024 22.021 23.8354 21.8132 23.6038L24.7412 17.4607C24.865 17.4796 24.9934 17.4914 25.1218 17.4914C26.5718 17.4914 27.7463 16.3029 27.7463 14.8357C27.7463 13.3684 26.5718 12.1799 25.1218 12.1799C24.0197 12.1799 23.0764 12.8699 22.6888 13.8433H17.0429C16.6553 12.8675 15.7119 12.1799 14.6098 12.1799C13.1598 12.1799 11.9853 13.3684 11.9853 14.8357C11.9853 16.3029 13.1598 17.4914 14.6098 17.4914C14.6845 17.4914 14.7569 17.4867 14.8316 17.4796L17.9021 23.6393C17.7083 23.8637 17.5495 24.1189 17.4398 24.3977H12.4687C12.0811 23.4219 11.1377 22.732 10.0356 22.732C8.58562 22.732 7.41113 23.9204 7.41113 25.3877C7.41113 26.855 8.58562 28.0434 10.0356 28.0434C11.1377 28.0434 12.0811 27.3535 12.4687 26.3801H17.4398C17.8274 27.3559 18.7707 28.0434 19.8728 28.0434C20.9749 28.0434 21.9183 27.3535 22.3059 26.3801H27.277C27.6646 27.3559 28.6079 28.0434 29.71 28.0434C31.16 28.0434 32.3345 26.855 32.3345 25.3877C32.3345 23.9204 31.16 22.732 29.71 22.732H29.7124ZM19.8728 22.732C19.7981 22.732 19.7257 22.7367 19.651 22.7438L16.5805 16.5841C16.7743 16.3596 16.9331 16.1045 17.0429 15.8257H22.6888C22.7799 16.0525 22.8989 16.2628 23.046 16.4541L20.048 22.7414C19.9896 22.7367 19.9335 22.732 19.8728 22.732Z" fill="#030304"/>
</svg>
